# xmcd
#
# Track frame offsets:
#	150
#	11282
#	26305
#	40702
#	55965
#	68075
#	85032
#	97350
#	112535
#	127205
#	141610
#	156975
#	177082
#	192510
#	207472
#	223300
#	235222
#	249900
#
# Disc length: 3494 seconds
#
# Revision: 0
# Processed by: cddbd v1.5.2PL0 Copyright (c) Steve Scherf et al.
# Submitted via: EasyCDDAExtractor 2011.0.0.0
#
DISCID=010da412
DTITLE=Jean michel de France - Jean michel de France - Pan Flute
DYEAR=1900
DGENRE=
TTITLE0=Woman in Love
TTITLE1=un Homme ET une Femme - A man and a woman
TTITLE2=La mer
TTITLE3=My hart in My hands
TTITLE4=We are the World
TTITLE5=About the Clouds
TTITLE6=Autumn Leaves
TTITLE7=Dolannes Melodie
TTITLE8=Guernica
TTITLE9=Feelings
TTITLE10=Love Serenade
TTITLE11=Adagio
TTITLE12=Song for Anna
TTITLE13=Liebestraum
TTITLE14=L for Love
TTITLE15=Ave Maria
TTITLE16=Summer Love Affair
TTITLE17=El Condor Pasa
EXTD=
EXTT0=
EXTT1=
EXTT2=
EXTT3=
EXTT4=
EXTT5=
EXTT6=
EXTT7=
EXTT8=
EXTT9=
EXTT10=
EXTT11=
EXTT12=
EXTT13=
EXTT14=
EXTT15=
EXTT16=
EXTT17=
PLAYORDER=
